<?xml version="1.0" encoding="utf-8"?>
<!-- Generator: Adobe Illustrator 26.4.1, SVG Export Plug-In . SVG Version: 6.00 Build 0)  -->
<svg version="1.1" id="Layer_1" xmlns="http://www.w3.org/2000/svg" xmlns:xlink="http://www.w3.org/1999/xlink" x="0px" y="0px"
	 viewBox="0 0 967.1 370" style="enable-background:new 0 0 967.1 370;" xml:space="preserve">
<style type="text/css">
	.st0{fill:#00101E;}
	.st1{fill:#C10000;}
</style>
<g>
	<g>
		<path class="st0" d="M88.1,295.6V94.2h48.9v201.4H88.1z"/>
		<path class="st0" d="M264.8,135.8v159.8h-48.6V135.8h-56.9V94.2h162.4v41.5H264.8z"/>
		<path class="st0" d="M450.2,146.6c-8.2-10.5-23.3-17.3-35.8-17.3c-12.5,0-28.2,4.3-28.2,20.2c0,13.4,11.9,17.6,31,23.6
			c27.3,8.8,62.6,20.5,62.6,60.6c0,46.4-37.3,67.1-77.1,67.1c-28.7,0-57.7-10.5-75.4-29l31.9-32.4c9.7,12.2,27.6,21.3,43.5,21.3
			c14.8,0,27.9-5.7,27.9-21.9c0-15.4-15.4-20.2-41.8-28.7c-25.6-8.2-51.5-21.3-51.5-57.7c0-44.6,40.4-63.1,77.9-63.1
			c22.8,0,48.3,8.5,66,24.7L450.2,146.6z"/>
		<path class="st0" d="M610.8,301c-62,0-108.4-43.2-108.4-106.4c0-64.6,47.8-105.8,109.2-105.8c28.2,0,58.6,10.2,75.4,29.6l-33,33
			c-9.1-12.5-25.3-18.5-40.7-18.5c-33.8,0-58,26.2-58,61.7c0,36.7,23.6,61.7,57.2,61.7c19.1,0,34.1-8.5,42.7-20.5l33.8,31.9
			C671.4,288.2,644.7,301,610.8,301z"/>
	</g>
	<path class="st1" d="M849.4,202.6c10.6,34.6-6.8,68-20.3,81.1c-1.3,1.3-0.2,4.2,1.2,3.4c50.5-29.6,68-96.5,21.7-141.7
		c-50.1-49-129.4-49.8-129.4-49.8v39.2C833.6,139.3,849.4,202.6,849.4,202.6"/>
	<path class="st1" d="M812.4,231.3c4.2,25.7-5.5,43.1-15.2,52.5c-0.9,0.9-0.2,3,0.9,2.4c36.1-21.1,49.1-69.9,16-102.2
		c-35.8-35-91.3-32.8-91.3-32.8v28C810.4,188.1,812.4,231.3,812.4,231.3"/>
	<path class="st1" d="M771.3,281c21.1-11.6,25.4-48.2,5.9-65.7c-21.2-19.1-54.8-18.4-54.8-18.4v4.5v10.7l-0.5,78.6
		C745.8,290.7,760.7,287.7,771.3,281"/>
</g>
</svg>
